<?xml version="1.0" encoding="utf-8"?>
<!-- Generator: Adobe Illustrator 24.2.1, SVG Export Plug-In . SVG Version: 6.00 Build 0)  -->
<svg version="1.1" id="Layer_1" xmlns="http://www.w3.org/2000/svg" xmlns:xlink="http://www.w3.org/1999/xlink" x="0px" y="0px"
	 viewBox="0 0 336.5 120" style="enable-background:new 0 0 336.5 120;" xml:space="preserve">
<style type="text/css">
	.st0{fill:#222963;}
</style>
<g>
	<g>
		<path class="st0" d="M276.5,60l-42.4,42.4c-5.5-5.5-9.9-12.1-13-19.4l18.6-18.6l4.5-4.5l-4.5-4.5l-18.6-18.6
			c3-7.3,7.5-13.9,13-19.4L276.5,60z"/>
		<path class="st0" d="M336.5,60c0,33.1-26.9,60-60,60c-10.9,0-21.2-2.9-30-8L258,92.1c5.5,3.2,11.8,5,18.5,5
			c20.5,0,37.1-16.6,37.1-37.1S297,22.9,276.5,22.9c-6.8,0-13.1,1.8-18.5,5L246.5,8c8.8-5.1,19.1-8,30-8
			C309.7,0,336.5,26.9,336.5,60z"/>
	</g>
	<g>
		<path class="st0" d="M28.4,50.7v23.6c0,0.5,0.2,0.9,0.5,1.2c0.3,0.3,0.6,0.5,1,0.5h1.8v6.7h-4.1c-2,0-3.8-0.8-5.4-2.4
			c-2.5,2.1-5.3,3.1-8.3,3.1c-3.5,0-6.4-1.1-8.9-3.3c-3.3-3.1-5-7.3-5-12.5c0-4.8,1.5-8.7,4.6-11.9c2.8-2.8,6.2-4.3,10.3-4.3
			c2.3,0,4.5,0.5,6.8,1.4l2.8-2.2H28.4z M20.4,59.2c-1.5-0.6-3-0.9-4.4-0.9c-2.4,0-4.3,0.9-5.8,2.6c-1.5,1.7-2.3,4-2.3,6.7
			c0,2.8,0.7,5,2.1,6.6c1.4,1.7,3.2,2.5,5.5,2.5c1.6,0,3.2-0.3,4.9-1V59.2z M14.2,38.1c1.2,0,2.2,0.4,3,1.2c0.8,0.8,1.2,1.8,1.2,3
			c0,1.1-0.4,2.1-1.2,2.9c-0.8,0.8-1.8,1.2-3,1.2s-2.2-0.4-3-1.2c-0.8-0.8-1.2-1.8-1.2-2.9c0-1.2,0.4-2.2,1.2-3
			C12,38.5,13,38.1,14.2,38.1z M24.2,38.1c1.2,0,2.2,0.4,3,1.2c0.8,0.8,1.2,1.8,1.2,3c0,1.1-0.4,2.1-1.2,2.9c-0.8,0.8-1.8,1.2-3,1.2
			c-1.1,0-2.1-0.4-2.9-1.2c-0.8-0.8-1.2-1.8-1.2-2.9c0-1.2,0.4-2.2,1.2-3C22.1,38.5,23,38.1,24.2,38.1z"/>
		<path class="st0" d="M44.5,76c-0.8-0.9-1.5-2.2-2.1-3.7c-0.7-1.8-1-3.8-1-5.8c0-5,1.8-8.8,5.3-11.5c2.9-2.2,6.5-3.3,10.9-3.3
			c2.3,0,4.7,0.4,7.2,1.1v6.3c-2.5-0.6-4.6-0.9-6.4-0.9c-6,0-9,3-9,9c0,1.9,0.5,3.6,1.4,5.1c1.5,2.4,3.8,3.6,6.7,3.6h12.7v2.6
			l-3.3,4.1H31.3V76H44.5z"/>
		<path class="st0" d="M85.4,35.7v38.6c0,0.4,0.1,0.8,0.4,1C86,75.8,86.5,76,87,76h1.7v6.7h-4.3c-1.8,0-3.4-0.6-4.7-1.9
			c-1.6-1.4-2.4-3.2-2.4-5.3V35.7H85.4z"/>
		<path class="st0" d="M157.8,52.5v21.4v2h3.3v6.7h-2.6l-2.2-2.7h-0.1c-1.5,1.8-3.3,2.7-5.6,2.7h-14l-2.2-2.7h-0.2
			c-1.4,1.8-3.3,2.7-5.5,2.7h-14.1l-2.2-2.7h-0.2c-1.4,1.8-3.3,2.7-5.5,2.7H88.3V76h16.1c1.1,0,1.6-0.5,1.6-1.6V60h8v13.9
			c0,0.9,0,1.6-0.1,2h12.4c1.1,0,1.6-0.5,1.6-1.6V56.2h8v17.5c0,0.3,0,0.7-0.1,1.2c0,0.5,0,0.8,0,1h12.3c1.1,0,1.6-0.5,1.6-1.6V52.5
			H157.8z"/>
		<path class="st0" d="M180.4,35.7v39.7c0,1.8-0.6,3.4-1.8,4.7c-1.4,1.7-3.1,2.5-5.3,2.5h-12.6V76h10.1c0.5,0,0.9-0.2,1.2-0.5
			c0.3-0.3,0.5-0.7,0.5-1.1V35.7H180.4z"/>
		<path class="st0" d="M197.4,35.7V81l-4.1,3.3h-3.9V35.7H197.4z"/>
	</g>
</g>
</svg>
