<?xml version="1.0" standalone="no"?>
<!DOCTYPE svg PUBLIC "-//W3C//DTD SVG 20010904//EN"
 "http://www.w3.org/TR/2001/REC-SVG-20010904/DTD/svg10.dtd">
<svg version="1.0" xmlns="http://www.w3.org/2000/svg"
 width="1080.000000pt" height="1080.000000pt" viewBox="0 0 1080.000000 1080.000000"
 preserveAspectRatio="xMidYMid meet">

<g transform="translate(0.000000,1080.000000) scale(0.100000,-0.100000)"
fill="#424a7b" stroke="none">
<path d="M0 5400 l0 -5400 5400 0 5400 0 0 5400 0 5400 -5400 0 -5400 0 0
-5400z m5775 3581 c812 -109 1511 -455 2085 -1032 597 -599 955 -1383 1031
-2258 15 -170 7 -573 -15 -736 -74 -565 -252 -1056 -551 -1520 -135 -209 -268
-369 -489 -590 -434 -431 -931 -728 -1501 -895 -391 -114 -822 -165 -1202
-141 -431 27 -764 99 -1128 243 -168 67 -480 230 -471 247 191 334 621 1081
646 1124 15 26 28 37 39 34 9 -3 75 -32 146 -65 334 -154 608 -216 950 -216
202 1 295 10 468 50 731 167 1290 632 1581 1317 115 271 169 544 170 862 1
568 -198 1085 -584 1515 -260 290 -684 544 -1075 644 -539 138 -1087 76 -1597
-180 -37 -19 -70 -34 -72 -34 -2 0 -18 24 -34 53 -28 52 -152 266 -374 652
-64 110 -148 256 -187 324 -40 69 -70 130 -67 136 6 18 181 119 306 178 352
166 748 270 1170 307 171 14 582 4 755 -19z m-2778 -1283 c11 -13 186 -187
389 -387 1436 -1419 1914 -1893 1914 -1901 0 -3 -48 -51 -107 -108 -60 -57
-261 -255 -448 -440 -623 -618 -1699 -1678 -1746 -1720 -25 -23 -49 -42 -51
-42 -5 0 -872 864 -912 908 -18 21 -16 24 668 714 l687 693 -218 215 c-270
266 -1050 1029 -1118 1093 l-50 46 475 476 c261 261 480 475 486 475 6 0 20
-10 31 -22z"/>
</g>
</svg>
